<?xml version="1.0" standalone="no"?>
<!DOCTYPE svg PUBLIC "-//W3C//DTD SVG 20010904//EN"
 "http://www.w3.org/TR/2001/REC-SVG-20010904/DTD/svg10.dtd">
<svg version="1.0" xmlns="http://www.w3.org/2000/svg"
 width="504.000000pt" height="504.000000pt" viewBox="0 0 504.000000 504.000000"
 preserveAspectRatio="xMidYMid meet">
<metadata>
Created by potrace 1.11, written by Peter Selinger 2001-2013
</metadata>
<g transform="translate(0.000000,504.000000) scale(0.100000,-0.100000)"
fill="#000000" stroke="none">
<path d="M2365 3171 c-49 -10 -119 -28 -154 -40 -59 -20 -175 -78 -204 -101
-143 -113 -231 -212 -295 -333 -37 -70 -88 -215 -97 -277 -3 -25 -8 -57 -11
-72 -3 -17 -1 -28 5 -28 6 0 11 5 11 11 0 22 89 135 161 205 363 347 905 390
1339 106 73 -48 209 -185 257 -258 37 -57 38 -58 41 -30 4 28 -19 142 -40 201
-21 60 -82 181 -112 225 -210 301 -567 456 -901 391z"/>
<path d="M15 2178 c-3 -8 -4 -81 -3 -163 l3 -150 35 0 35 0 3 68 3 67 59 0 59
0 3 -67 3 -68 35 0 35 0 0 160 0 160 -35 0 -35 0 -3 -62 -3 -63 -59 0 -59 0
-3 63 -3 62 -33 3 c-20 2 -34 -2 -37 -10z"/>
<path d="M802 2163 c3 -24 8 -28 33 -28 25 0 30 4 30 25 0 21 -5 26 -33 28
-31 3 -33 2 -30 -25z"/>
<path d="M1834 2177 c-2 -7 -3 -80 -2 -162 3 -125 5 -150 18 -150 12 0 16 15
18 68 l3 67 74 0 c64 0 78 3 102 24 23 20 28 32 28 71 0 39 -5 51 -28 71 -25
22 -37 24 -118 24 -64 0 -91 -4 -95 -13z m184 -33 c15 -10 22 -25 22 -49 0
-48 -29 -65 -107 -65 l-63 0 0 58 c0 32 3 62 7 65 13 14 118 7 141 -9z"/>
<path d="M2118 2178 c-3 -7 -5 -80 -4 -163 1 -126 3 -150 16 -150 12 0 16 19
20 88 4 78 8 91 29 108 30 24 56 24 81 -1 17 -17 20 -33 20 -110 0 -73 3 -90
15 -90 12 0 15 18 15 100 0 86 -3 103 -20 120 -29 29 -67 35 -106 17 l-33 -16
-3 51 c-3 49 -20 74 -30 46z"/>
<path d="M4210 2165 c0 -16 6 -25 15 -25 9 0 15 9 15 25 0 16 -6 25 -15 25 -9
0 -15 -9 -15 -25z"/>
<path d="M4770 2025 c0 -129 3 -166 13 -162 9 3 12 44 12 162 0 118 -3 159
-12 163 -10 3 -13 -34 -13 -163z"/>
<path d="M4097 2163 c-4 -3 -7 -19 -7 -35 0 -21 -5 -28 -20 -28 -11 0 -20 -7
-20 -15 0 -8 9 -15 20 -15 19 0 20 -7 20 -94 0 -99 5 -111 50 -118 18 -2 26 2
28 16 3 13 0 17 -11 13 -27 -10 -37 16 -37 100 0 82 0 83 25 83 32 0 34 27 3
32 -18 2 -24 11 -26 36 -3 31 -11 39 -25 25z"/>
<path d="M410 2099 c-37 -15 -58 -38 -71 -76 -15 -48 -4 -97 32 -132 80 -80
209 -25 209 89 0 92 -86 152 -170 119z m90 -68 c5 -11 10 -34 10 -51 0 -47
-16 -70 -49 -70 -16 0 -35 7 -42 16 -17 21 -17 87 0 108 19 23 68 21 81 -3z"/>
<path d="M718 2095 c-17 -10 -29 -11 -33 -5 -3 5 -19 10 -36 10 l-29 0 0 -121
0 -120 33 3 32 3 3 70 c3 77 17 102 61 107 22 2 26 8 26 33 0 35 -18 41 -57
20z"/>
<path d="M1210 2092 c-98 -48 -85 -202 20 -233 48 -14 81 -6 121 29 62 55 47
170 -27 205 -44 22 -70 21 -114 -1z m100 -61 c5 -11 10 -34 10 -51 0 -47 -16
-70 -50 -70 -33 0 -60 31 -60 70 0 60 74 98 100 51z"/>
<path d="M1518 2095 c-17 -9 -29 -11 -33 -5 -3 5 -17 10 -31 10 l-24 0 0 -121
0 -120 33 3 32 3 3 80 c3 86 12 105 48 105 32 0 44 -32 44 -121 l0 -69 30 0
30 0 0 103 c0 89 -3 106 -19 121 -26 24 -81 29 -113 11z"/>
<path d="M2398 2095 c-29 -16 -45 -52 -30 -67 6 -6 17 1 31 21 25 35 69 42 95
15 35 -34 14 -59 -57 -67 -59 -6 -87 -29 -87 -73 0 -60 76 -95 129 -58 19 14
27 14 47 3 30 -16 54 0 29 21 -11 9 -15 33 -15 95 0 78 -2 85 -26 104 -31 24
-77 26 -116 6z m110 -143 c4 -27 -39 -72 -69 -72 -25 0 -59 26 -59 45 0 20 34
43 70 48 49 5 55 3 58 -21z"/>
<path d="M2801 2094 c-19 -14 -25 -14 -32 -3 -6 10 -11 11 -19 3 -16 -16 -9
-226 8 -232 9 -3 12 16 12 73 0 88 17 131 56 141 44 11 58 -15 64 -118 3 -60
9 -93 18 -96 9 -3 12 18 12 81 0 71 3 89 21 111 27 34 68 32 86 -4 7 -14 13
-62 13 -108 0 -62 3 -83 13 -80 8 3 13 31 15 79 5 111 -3 137 -44 157 -34 16
-37 16 -73 -4 -37 -20 -39 -20 -61 -2 -28 22 -58 23 -89 2z"/>
<path d="M3158 2095 c-26 -15 -47 -59 -34 -72 3 -3 19 8 35 26 17 18 39 31 53
31 28 0 58 -28 58 -53 0 -17 -9 -20 -85 -32 -51 -9 -75 -30 -75 -69 0 -37 7
-49 37 -65 31 -16 65 -14 92 6 19 13 28 14 42 5 10 -7 26 -12 34 -12 19 0 20
26 0 34 -12 4 -15 24 -15 89 0 70 -3 87 -19 101 -27 24 -90 30 -123 11z m112
-140 c0 -56 -78 -96 -114 -59 -41 40 -1 74 97 83 12 1 17 -6 17 -24z"/>
<path d="M3404 2091 c-38 -23 -44 -32 -55 -80 -18 -78 26 -148 100 -158 35 -5
44 -2 71 25 16 17 30 40 30 51 0 28 -16 27 -31 -1 -16 -30 -39 -47 -64 -47
-72 -1 -102 124 -43 179 31 29 64 25 98 -12 33 -35 46 -33 36 7 -4 17 -18 31
-41 41 -45 19 -64 18 -101 -5z"/>
<path d="M3634 2091 c-97 -59 -53 -241 58 -241 26 0 88 35 88 49 0 5 3 16 6
25 11 28 -21 18 -45 -15 -31 -42 -76 -38 -108 10 -12 18 -20 37 -17 42 3 5 42
9 88 9 45 0 85 2 88 5 13 13 -17 87 -44 110 -35 30 -72 32 -114 6z m94 -28
c11 -10 23 -28 27 -40 6 -22 4 -23 -64 -23 -80 0 -90 12 -46 55 28 29 55 32
83 8z"/>
<path d="M4344 2096 c-35 -16 -64 -68 -64 -116 0 -66 54 -130 110 -130 54 0
118 67 89 94 -8 8 -13 8 -16 -1 -11 -29 -46 -63 -67 -63 -34 0 -64 27 -75 66
-13 49 -4 90 27 114 36 29 66 25 97 -11 18 -22 29 -29 36 -22 16 16 -5 50 -41
68 -35 18 -55 18 -96 1z"/>
<path d="M4563 2091 c-35 -22 -47 -71 -18 -71 8 0 15 6 15 14 0 19 39 46 66
46 11 0 29 -9 40 -21 28 -31 8 -52 -56 -62 -57 -8 -78 -20 -90 -52 -24 -65 67
-122 127 -80 18 12 27 13 48 3 19 -8 28 -9 37 0 8 8 7 13 -5 18 -14 5 -17 21
-17 94 0 73 -3 90 -19 104 -30 28 -90 31 -128 7z m117 -136 c0 -32 -44 -75
-76 -75 -25 0 -54 24 -54 44 0 20 32 44 65 49 63 9 65 8 65 -18z"/>
<path d="M4888 2099 c-30 -12 -49 -54 -38 -85 8 -21 34 -34 99 -51 19 -4 39
-16 45 -26 9 -15 7 -22 -13 -38 -13 -10 -33 -19 -45 -19 -27 0 -66 27 -66 46
0 8 -7 14 -15 14 -32 0 -14 -55 26 -75 80 -42 174 18 141 90 -8 16 -25 28 -54
35 -72 20 -88 29 -88 49 0 43 71 55 96 16 16 -24 44 -34 44 -16 0 23 -15 43
-41 56 -32 17 -52 18 -91 4z"/>
<path d="M800 1980 l0 -121 33 3 32 3 0 115 0 115 -32 3 -33 3 0 -121z"/>
<path d="M917 2093 c-4 -3 -7 -15 -7 -25 0 -15 8 -18 43 -18 24 0 47 -3 50 -7
4 -3 -18 -34 -48 -69 -36 -41 -55 -71 -55 -88 l0 -26 110 0 110 0 0 25 c0 24
-3 25 -60 25 -71 0 -71 3 4 85 31 34 46 59 46 78 l0 27 -93 0 c-52 0 -97 -3
-100 -7z"/>
<path d="M2597 2083 c-3 -10 -4 -63 -3 -118 1 -81 4 -100 16 -100 12 0 16 18
20 81 5 86 16 108 55 118 14 4 25 13 25 21 0 21 -37 18 -59 -4 -20 -20 -20
-20 -26 0 -8 24 -22 25 -28 2z"/>
<path d="M3830 2000 c0 -94 2 -103 25 -125 28 -29 70 -32 104 -9 17 12 26 13
34 5 23 -23 27 -8 27 109 0 100 -2 120 -15 120 -12 0 -15 -16 -15 -85 0 -78
-2 -88 -25 -110 -28 -29 -66 -32 -86 -9 -9 11 -16 52 -19 107 -3 60 -9 92 -17
95 -10 3 -13 -21 -13 -98z"/>
<path d="M4214 2087 c-10 -28 1 -220 14 -225 9 -3 12 25 12 117 0 77 -4 121
-10 121 -6 0 -13 -6 -16 -13z"/>
</g>
</svg>
