<?xml version="1.0" standalone="no"?>
<!DOCTYPE svg PUBLIC "-//W3C//DTD SVG 20010904//EN"
 "http://www.w3.org/TR/2001/REC-SVG-20010904/DTD/svg10.dtd">
<svg version="1.0" xmlns="http://www.w3.org/2000/svg"
 width="504.000000pt" height="504.000000pt" viewBox="0 0 504.000000 504.000000"
 preserveAspectRatio="xMidYMid meet">
<metadata>
Created by potrace 1.11, written by Peter Selinger 2001-2013
</metadata>
<g transform="translate(0.000000,504.000000) scale(0.100000,-0.100000)"
fill="#000000" stroke="none">
<path d="M2360 3184 c-34 -6 -130 -33 -155 -44 -11 -5 -38 -16 -60 -26 -292
-127 -515 -431 -550 -751 -4 -38 -3 -63 3 -63 5 0 29 30 54 68 150 222 357
359 648 428 104 24 327 24 430 0 299 -72 524 -227 668 -461 41 -65 48 -45 27
71 -26 141 -73 257 -151 376 -109 164 -243 271 -449 358 -75 32 -139 42 -285
45 -85 2 -166 1 -180 -1z"/>
<path d="M4 2187 c-2 -7 -3 -85 -2 -172 l3 -160 42 -3 42 -3 3 73 3 73 55 0
55 0 3 -73 3 -73 42 3 42 3 0 170 0 170 -42 3 -42 3 -3 -63 -3 -63 -55 0 -55
0 -3 63 -3 62 -40 0 c-23 0 -42 -5 -45 -13z"/>
<path d="M794 2186 c-3 -8 -4 -25 -2 -38 2 -19 9 -23 38 -23 33 0 35 2 38 38
3 36 3 37 -33 37 -22 0 -38 -6 -41 -14z"/>
<path d="M1830 2024 l0 -175 23 3 c20 3 22 9 25 76 l3 72 79 0 c75 0 79 1 104
31 37 44 35 88 -8 133 l-33 36 -97 0 -96 0 0 -176z m194 104 c21 -30 20 -44
-4 -68 -16 -16 -33 -20 -80 -20 l-60 0 0 55 0 55 64 0 c56 0 67 -3 80 -22z"/>
<path d="M2110 2025 l0 -176 23 3 c21 3 22 8 25 93 3 96 16 125 56 125 44 0
51 -14 56 -117 4 -82 8 -98 22 -101 24 -5 31 32 26 133 -6 112 -20 129 -100
123 l-57 -4 -3 45 c-3 39 -6 46 -25 49 l-23 3 0 -176z"/>
<path d="M4200 2166 c0 -32 3 -36 26 -36 23 0 25 3 22 33 -2 24 -8 33 -25 35
-20 3 -23 -1 -23 -32z"/>
<path d="M4764 2187 c-2 -7 -3 -85 -2 -172 3 -143 5 -160 21 -163 16 -3 17 10
17 172 0 151 -2 176 -15 176 -9 0 -18 -6 -21 -13z"/>
<path d="M4087 2174 c-4 -4 -7 -20 -7 -36 0 -17 -5 -28 -14 -28 -16 0 -25 -19
-19 -37 3 -7 11 -13 18 -13 10 0 14 -25 17 -95 3 -103 9 -115 59 -115 28 0 42
19 30 39 -4 7 -14 11 -22 9 -11 -2 -15 15 -17 80 -3 76 -1 82 17 82 21 0 31
17 23 38 -2 6 -12 12 -22 12 -14 0 -20 9 -22 32 -3 31 -25 48 -41 32z"/>
<path d="M368 2081 c-31 -28 -33 -33 -33 -100 0 -63 3 -73 27 -97 31 -32 110
-44 158 -24 61 25 92 135 53 190 -33 48 -55 59 -115 60 -50 0 -62 -4 -90 -29z
m131 -72 c12 -36 -1 -74 -32 -93 -15 -9 -22 -7 -38 13 -36 45 -19 111 30 111
24 0 31 -6 40 -31z"/>
<path d="M614 2097 c-2 -7 -3 -65 -2 -128 l3 -114 38 -3 37 -3 0 53 c0 29 5
70 10 90 9 32 15 37 43 40 29 3 32 6 35 41 3 34 1 37 -23 37 -14 0 -35 -5 -46
-10 -13 -7 -19 -7 -19 0 0 15 -70 12 -76 -3z"/>
<path d="M794 2097 c-2 -7 -3 -65 -2 -128 l3 -114 38 -3 37 -3 0 130 0 131
-35 0 c-20 0 -38 -6 -41 -13z"/>
<path d="M900 2075 l0 -35 50 0 51 0 -56 -65 c-30 -36 -55 -73 -55 -83 0 -39
13 -43 126 -40 l109 3 3 33 3 32 -55 0 c-31 0 -56 3 -56 8 0 4 16 25 36 47 56
63 67 82 60 110 -6 25 -8 25 -111 25 l-105 0 0 -35z"/>
<path d="M1173 2075 c-34 -34 -35 -37 -31 -100 6 -89 32 -117 118 -123 60 -4
61 -4 100 37 35 36 40 48 40 87 0 86 -50 134 -140 134 -46 0 -56 -4 -87 -35z
m136 -66 c12 -35 -1 -74 -31 -93 -26 -16 -58 18 -58 64 0 43 14 60 51 60 21 0
29 -7 38 -31z"/>
<path d="M1424 2095 c-3 -6 -3 -63 -2 -126 l3 -114 38 -3 37 -3 0 70 c0 89 12
121 44 121 22 0 26 -6 30 -42 4 -24 7 -65 9 -93 l2 -50 35 0 35 0 3 101 c2 89
0 103 -18 127 -20 25 -24 26 -116 25 -63 0 -97 -5 -100 -13z"/>
<path d="M2374 2085 c-28 -28 -29 -68 -2 -73 10 -2 22 8 30 25 14 30 36 38 74
29 19 -5 24 -12 22 -29 -2 -12 -10 -23 -18 -24 -101 -13 -140 -39 -140 -93 0
-46 31 -70 88 -70 26 0 53 5 60 12 9 9 17 9 36 -2 14 -7 32 -10 40 -7 20 8 21
33 2 44 -10 6 -15 34 -17 95 -5 104 -15 117 -97 118 -43 0 -57 -4 -78 -25z
m124 -142 c-6 -54 -108 -72 -108 -20 0 25 34 44 83 46 25 1 28 -2 25 -26z"/>
<path d="M2590 1979 c0 -130 0 -130 23 -127 20 3 22 9 25 73 3 99 7 111 47
129 22 11 35 24 35 36 0 25 -36 27 -68 4 -20 -14 -22 -14 -22 0 0 9 -9 16 -20
16 -19 0 -20 -7 -20 -131z"/>
<path d="M2735 2088 c-3 -13 -5 -70 -3 -128 3 -97 4 -105 23 -105 18 0 20 8
25 93 4 78 8 96 24 108 25 18 50 18 64 1 6 -7 13 -56 14 -108 3 -86 5 -94 23
-94 18 0 20 8 23 90 3 97 16 125 57 125 36 0 44 -20 47 -121 3 -86 5 -94 23
-94 18 0 20 8 23 98 2 86 0 101 -18 127 -18 26 -28 30 -67 30 -28 0 -53 -6
-63 -15 -15 -14 -18 -14 -30 0 -15 18 -90 21 -107 4 -8 -8 -13 -8 -17 0 -12
19 -35 12 -41 -11z"/>
<path d="M3141 2093 c-26 -21 -33 -76 -11 -80 8 -2 23 10 32 27 20 36 65 41
92 11 22 -24 7 -36 -53 -44 -61 -8 -95 -35 -99 -80 -5 -52 24 -77 87 -77 31 0
53 5 61 15 11 13 14 13 27 0 19 -19 49 -19 57 0 3 8 -1 21 -9 29 -11 10 -15
37 -15 89 0 101 -19 127 -95 127 -35 0 -60 -6 -74 -17z m122 -129 c3 -4 0 -19
-8 -34 -24 -47 -105 -52 -105 -6 0 15 9 26 28 33 31 12 76 16 85 7z"/>
<path d="M3371 2073 c-27 -33 -31 -45 -31 -96 0 -54 3 -62 34 -93 29 -29 41
-34 79 -34 58 0 107 37 107 81 0 40 -33 40 -50 0 -19 -47 -86 -52 -109 -8 -35
68 -3 147 59 147 23 0 33 -7 45 -31 10 -19 22 -29 33 -27 28 5 26 38 -4 69
-24 25 -35 29 -80 29 -48 0 -55 -3 -83 -37z"/>
<path d="M3617 2089 c-55 -43 -59 -159 -7 -211 24 -23 37 -28 80 -28 45 0 56
4 81 31 32 34 37 57 14 65 -9 4 -27 -6 -44 -25 -35 -37 -64 -39 -96 -6 -47 46
-35 57 63 53 l87 -2 3 31 c3 32 -18 76 -48 100 -25 20 -104 16 -133 -8z m114
-40 c11 -11 19 -25 17 -31 -4 -11 -128 -18 -128 -7 0 4 9 18 21 33 25 32 61
34 90 5z"/>
<path d="M3827 2103 c-4 -3 -7 -51 -7 -105 0 -92 2 -101 25 -123 18 -19 35
-25 67 -25 24 0 50 4 58 10 9 6 17 5 21 -2 4 -6 14 -8 23 -5 13 5 16 26 16
127 0 101 -3 122 -16 127 -24 9 -34 -15 -34 -89 0 -37 -4 -78 -10 -92 -11 -30
-49 -42 -79 -26 -19 10 -21 19 -21 110 0 90 -2 100 -18 100 -10 0 -22 -3 -25
-7z"/>
<path d="M4202 1983 c3 -120 4 -128 23 -128 19 0 20 7 20 125 0 123 0 125 -23
128 l-23 3 3 -128z"/>
<path d="M4324 2092 c-30 -23 -54 -74 -54 -112 0 -43 36 -109 66 -120 74 -29
148 3 160 68 6 28 4 32 -15 32 -14 0 -25 -9 -31 -24 -20 -54 -88 -58 -115 -6
-19 36 -19 63 0 99 26 51 73 55 108 10 17 -22 30 -30 42 -26 20 8 12 41 -18
75 -26 28 -110 31 -143 4z"/>
<path d="M4540 2083 c-11 -15 -20 -36 -18 -47 3 -24 38 -35 38 -13 0 39 75 63
100 32 21 -25 4 -42 -45 -48 -67 -7 -99 -34 -103 -85 -2 -32 1 -43 20 -56 28
-20 98 -21 123 -2 16 11 21 11 33 0 23 -24 52 -17 52 11 0 14 -4 25 -10 25 -6
0 -10 33 -10 79 0 64 -4 83 -21 105 -18 23 -28 26 -79 26 -52 0 -61 -3 -80
-27z m130 -129 c0 -42 -47 -73 -91 -59 -30 10 -24 49 9 62 42 17 82 16 82 -3z"/>
<path d="M4862 2094 c-16 -11 -22 -25 -22 -53 0 -47 10 -56 86 -79 66 -20 82
-44 40 -63 -32 -15 -77 -3 -83 21 -6 22 -32 35 -45 22 -14 -14 2 -61 25 -77
13 -9 44 -15 75 -15 43 0 58 5 77 25 51 50 25 103 -65 130 -51 16 -60 22 -58
39 5 34 62 35 84 2 19 -31 54 -35 54 -7 0 10 -9 30 -21 45 -17 22 -28 26 -73
26 -30 0 -61 -6 -74 -16z"/>
</g>
</svg>
